<svg width="400" height="401" viewBox="0 0 400 401" fill="none" xmlns="http://www.w3.org/2000/svg">
<path d="M372.4 201.348C383.114 212.063 389.134 226.595 389.134 241.748C389.134 256.901 383.114 271.433 372.4 282.148C361.685 292.863 347.153 298.882 332 298.882C316.847 298.882 302.314 292.863 291.6 282.148L332 241.748L372.4 201.348Z" fill="#0E4B44"/>
<path d="M372.4 201.348L332 241.744L291.6 201.344C299.578 193.375 309.733 187.942 320.79 185.727C331.847 183.513 343.312 184.616 353.744 188.898C356.155 189.885 358.494 191.04 360.744 192.354C365.001 194.835 368.919 197.858 372.4 201.348Z" fill="white"/>
<path d="M352.858 175.536C354.372 177.788 354.724 181.756 353.75 188.902C348.951 186.928 343.904 185.62 338.75 185.014L338.79 184.614C340.758 179.138 342.712 174.574 345.692 173.236C345.608 174.111 345.826 174.988 346.309 175.723C346.793 176.457 347.513 177.004 348.35 177.272C349.188 177.54 350.091 177.514 350.912 177.198C351.732 176.882 352.42 176.295 352.86 175.534L352.858 175.536Z" fill="#21948C"/>
<path d="M350.247 169.824C351.251 170.015 352.137 170.596 352.711 171.441C353.285 172.285 353.5 173.323 353.31 174.326C353.231 174.753 353.078 175.162 352.858 175.536C351.907 174.216 350.486 173.311 348.888 173.008C347.827 172.709 346.695 172.79 345.688 173.238C345.702 173.124 345.721 173.002 345.743 172.886C345.837 172.389 346.028 171.915 346.306 171.492C346.583 171.068 346.941 170.704 347.36 170.42C347.778 170.135 348.249 169.936 348.744 169.834C349.24 169.732 349.751 169.728 350.247 169.824Z" fill="white"/>
<path d="M352.857 175.536C352.417 176.297 351.73 176.884 350.909 177.2C350.089 177.516 349.185 177.542 348.348 177.274C347.511 177.005 346.791 176.459 346.307 175.725C345.823 174.99 345.606 174.113 345.689 173.238C346.697 172.79 347.829 172.709 348.89 173.008C350.487 173.311 351.907 174.216 352.857 175.536Z" fill="white"/>
<path d="M332 241.744L291.6 282.144C286.292 276.84 282.081 270.542 279.208 263.61C276.335 256.678 274.856 249.248 274.856 241.744C274.856 234.24 276.335 226.81 279.208 219.878C282.081 212.946 286.292 206.648 291.6 201.344L332 241.744Z" fill="#21948C"/>
<path d="M300.902 146.58C301.399 146.674 301.873 146.865 302.296 147.142C302.719 147.42 303.083 147.778 303.368 148.196C303.652 148.615 303.851 149.085 303.953 149.581C304.056 150.076 304.059 150.587 303.964 151.084C303.887 151.514 303.731 151.926 303.504 152.3C302.813 151.269 301.749 150.547 300.536 150.286C299.834 150.113 299.105 150.083 298.391 150.196C297.677 150.31 296.993 150.566 296.38 150.948C296.285 150.339 296.338 149.716 296.534 149.131C296.73 148.547 297.064 148.018 297.507 147.59C297.951 147.162 298.491 146.847 299.081 146.671C299.672 146.495 300.297 146.464 300.902 146.58Z" fill="white"/>
<path d="M303.504 152.3C307.96 158.648 302.904 177.632 303.728 192.1C296.34 196.314 289.985 202.121 285.124 209.101C280.264 216.08 277.02 224.055 275.63 232.446L240.05 225.646L172.916 212.814L178.082 185.778L178.752 182.304C187.088 183.412 194.998 131.998 209.302 125.724C209.263 126.642 209.553 127.543 210.12 128.266C210.687 128.989 211.494 129.486 212.394 129.666C213.295 129.846 214.231 129.699 215.033 129.25C215.834 128.801 216.449 128.08 216.766 127.218C226.866 139.57 204.036 201.834 224.656 205.29C245.656 208.812 246.456 130.124 261.028 122.756C261.1 123.543 261.414 124.289 261.925 124.892C262.437 125.495 263.122 125.926 263.887 126.126C264.652 126.325 265.46 126.284 266.201 126.008C266.942 125.732 267.58 125.234 268.028 124.582C277.852 136.73 258.228 190.51 271.47 192.654C284.62 194.776 286.27 157.012 296.37 150.954C296.49 151.74 296.851 152.47 297.403 153.043C297.955 153.616 298.672 154.003 299.453 154.151C300.235 154.3 301.044 154.202 301.767 153.871C302.491 153.541 303.094 152.994 303.494 152.306L303.504 152.3Z" fill="#21948C"/>
<path d="M300.536 150.286C301.749 150.547 302.813 151.269 303.504 152.3C303.104 152.988 302.501 153.535 301.777 153.865C301.053 154.196 300.245 154.294 299.463 154.145C298.682 153.997 297.965 153.61 297.413 153.037C296.861 152.464 296.5 151.734 296.38 150.948C296.993 150.566 297.677 150.31 298.391 150.196C299.105 150.083 299.834 150.113 300.536 150.286Z" fill="white"/>
<path d="M265.584 118.62C266.587 118.813 267.473 119.396 268.047 120.241C268.622 121.086 268.838 122.124 268.648 123.128C268.55 123.649 268.342 124.142 268.038 124.576C267.094 123.374 265.742 122.56 264.238 122.29C263.144 122.074 262.009 122.236 261.02 122.75C260.987 122.393 261.005 122.033 261.074 121.682C261.168 121.184 261.36 120.71 261.637 120.287C261.915 119.863 262.274 119.499 262.693 119.214C263.112 118.93 263.583 118.731 264.079 118.629C264.575 118.527 265.087 118.524 265.584 118.62Z" fill="white"/>
<path d="M268.038 124.576C267.59 125.228 266.953 125.726 266.212 126.002C265.471 126.278 264.662 126.319 263.897 126.12C263.132 125.92 262.447 125.489 261.935 124.886C261.424 124.283 261.11 123.537 261.038 122.75C262.028 122.236 263.162 122.074 264.256 122.29C265.754 122.565 267.099 123.378 268.038 124.576Z" fill="white"/>
<path d="M243.16 87.8978C243.966 88.051 244.709 88.4399 245.294 89.0153C245.879 89.5907 246.28 90.3268 246.447 91.1304C246.614 91.934 246.538 92.769 246.23 93.5297C245.922 94.2904 245.395 94.9426 244.716 95.4038C244.038 95.8651 243.237 96.1146 242.417 96.1208C241.596 96.1269 240.792 95.8896 240.106 95.4386C239.42 94.9877 238.884 94.3435 238.564 93.5875C238.245 92.8315 238.157 91.9978 238.312 91.1918C238.521 90.1138 239.148 89.1625 240.056 88.5453C240.965 87.9282 242.08 87.6954 243.16 87.8978Z" fill="#0E4B44"/>
<path d="M225.818 84.5858C226.623 84.7392 227.365 85.1281 227.949 85.7031C228.534 86.2781 228.934 87.0135 229.1 87.8162C229.267 88.6189 229.191 89.4529 228.883 90.2126C228.575 90.9724 228.049 91.6237 227.371 92.0844C226.693 92.545 225.894 92.7942 225.074 92.8004C224.254 92.8066 223.451 92.5696 222.766 92.1192C222.081 91.6689 221.545 91.0256 221.226 90.2706C220.906 89.5156 220.818 88.6829 220.972 87.8778C221.179 86.7988 221.805 85.8459 222.714 85.2286C223.623 84.6113 224.739 84.3801 225.818 84.5858Z" fill="#0E4B44"/>
<path d="M212.372 263.498L224.696 328.826L214.908 330.672L202.59 265.344L212.372 263.498Z" fill="#21948C"/>
<path d="M213.872 122.1C214.876 122.293 215.762 122.876 216.336 123.721C216.911 124.567 217.126 125.606 216.936 126.61C216.897 126.814 216.84 127.015 216.766 127.21C215.893 126.108 214.634 125.38 213.244 125.174C211.905 124.966 210.535 125.154 209.302 125.716C209.31 125.53 209.331 125.345 209.364 125.162C209.556 124.158 210.139 123.272 210.984 122.698C211.829 122.124 212.868 121.909 213.872 122.1Z" fill="white"/>
<path d="M213.244 125.176C214.634 125.382 215.894 126.11 216.766 127.212C216.449 128.074 215.835 128.795 215.033 129.244C214.231 129.693 213.296 129.84 212.395 129.66C211.494 129.48 210.687 128.983 210.12 128.26C209.553 127.537 209.263 126.636 209.302 125.718C210.535 125.156 211.906 124.968 213.244 125.176Z" fill="white"/>
<path d="M195.906 229.93L205.692 228.084L212.376 263.515L202.591 265.361L195.906 229.93Z" fill="#0E4B44"/>
<path d="M208.484 81.2738C209.29 81.4272 210.031 81.8161 210.615 82.3911C211.2 82.9661 211.6 83.7015 211.766 84.5042C211.933 85.3069 211.857 86.1409 211.549 86.9006C211.241 87.6603 210.715 88.3117 210.037 88.7724C209.359 89.233 208.56 89.4822 207.74 89.4884C206.92 89.4946 206.117 89.2576 205.432 88.8072C204.747 88.3569 204.211 87.7136 203.892 86.9586C203.572 86.2036 203.484 85.3709 203.638 84.5658C203.846 83.4876 204.473 82.5357 205.381 81.9187C206.29 81.3017 207.405 81.0698 208.484 81.2738Z" fill="#0E4B44"/>
<path d="M191.834 306.646L197.004 334.046V334.052L187.222 335.892L182.05 308.49L191.834 306.646Z" fill="#21948C"/>
<path d="M168.222 235.149L178.007 233.303L191.846 306.655L182.06 308.501L168.222 235.149Z" fill="#0E4B44"/>
<path d="M160.018 289.974L169.314 339.272L159.53 341.118L150.228 291.82L160.01 289.974H160.018Z" fill="#21948C"/>
<path d="M150.31 238.512L160.018 289.974H160.01L150.228 291.82L140.52 240.358L150.31 238.512Z" fill="#0E4B44"/>
<path d="M147.152 80.0978C150.119 91.3425 149.275 103.254 144.752 113.968C136.964 132.071 134.905 152.124 138.85 171.432L139.06 172.448C139.591 174.962 139.141 177.584 137.803 179.777C136.464 181.971 134.338 183.57 131.86 184.248L130.202 184.68L130.182 184.606L110.28 108.648C108.834 116.408 104.452 116.368 100.74 113.636C103.162 108.16 102.668 99.3038 97.63 100.622C92.256 102.022 95.928 110.094 100.74 113.636C98.854 117.91 95.19 120.126 90.54 113.82L110.438 189.788L110.458 189.856L109.174 190.194C108.371 190.393 107.547 190.495 106.72 190.498C104.577 190.493 102.491 189.806 100.765 188.535C99.0388 187.265 97.7621 185.478 97.12 183.434C91.1052 164.329 79.3827 147.525 63.53 135.284C56.8888 130.128 51.572 123.464 48.0204 115.843C44.4688 108.222 42.7846 99.8649 43.1074 91.4635C43.4302 83.062 45.7507 74.8585 49.8766 67.5329C54.0025 60.2072 59.815 53.9704 66.8323 49.3394C73.8495 44.7084 81.8695 41.8166 90.2274 40.9036C98.5853 39.9906 107.04 41.0827 114.892 44.0895C122.744 47.0962 129.766 51.931 135.376 58.1931C140.986 64.4552 145.023 71.9642 147.152 80.0978Z" fill="#0E4B44"/>
<path d="M142.048 197.394C142.219 198.037 142.261 198.709 142.172 199.369C142.083 200.029 141.864 200.665 141.527 201.24C141.191 201.815 140.745 202.317 140.213 202.719C139.682 203.121 139.077 203.413 138.432 203.58L113.288 210.164C112.643 210.332 111.972 210.372 111.313 210.281C110.653 210.19 110.018 209.97 109.444 209.633C108.869 209.297 108.367 208.85 107.965 208.32C107.563 207.789 107.27 207.184 107.102 206.54C106.99 206.121 106.934 205.689 106.934 205.256C106.935 204.135 107.307 203.047 107.992 202.16C108.677 201.274 109.636 200.638 110.72 200.354L135.862 193.77C136.961 193.483 138.124 193.571 139.168 194.02C139.873 194.326 140.499 194.789 140.998 195.374C141.497 195.958 141.856 196.649 142.048 197.394Z" fill="#21948C"/>
<path d="M129.764 335.344L139.549 333.499L141.625 344.507L131.839 346.352L129.764 335.344Z" fill="#21948C"/>
<path d="M139.554 203.37C139.773 204.211 139.883 205.077 139.884 205.946C139.881 208.186 139.137 210.362 137.767 212.135C136.397 213.908 134.479 215.177 132.312 215.746L123.828 217.964C122.54 218.302 121.198 218.384 119.878 218.203C118.558 218.022 117.287 217.583 116.138 216.911C114.988 216.238 113.982 215.346 113.178 214.284C112.373 213.222 111.786 212.013 111.45 210.724L139.554 203.37Z" fill="#21948C"/>
<path d="M122.618 243.738L139.546 333.492L129.764 335.338L112.828 245.584L122.618 243.738Z" fill="#0E4B44"/>
<path d="M139.466 187.502C139.573 187.922 139.627 188.354 139.628 188.788C139.628 189.909 139.257 190.999 138.572 191.887C137.887 192.775 136.927 193.411 135.842 193.696L110.7 200.28C109.934 200.483 109.131 200.502 108.356 200.335C107.582 200.168 106.858 199.82 106.244 199.32C105.654 198.843 105.179 198.24 104.851 197.556C104.523 196.872 104.352 196.124 104.35 195.366C104.351 194.245 104.723 193.157 105.408 192.27C106.093 191.384 107.052 190.748 108.136 190.464L109.178 190.194L110.462 189.856L130.202 184.69L131.86 184.258L133.278 183.886C134.578 183.546 135.959 183.736 137.119 184.414C138.279 185.092 139.123 186.203 139.466 187.502Z" fill="#21948C"/>
<path d="M130.176 184.616L130.196 184.69L110.456 189.856L110.436 189.788L90.5381 113.82C95.1901 120.126 98.8541 117.91 100.738 113.636C104.45 116.368 108.832 116.408 110.278 108.648L130.176 184.616Z" fill="#0E4B44"/>
<path d="M97.6299 100.622C102.668 99.3038 103.162 108.16 100.74 113.636C95.9279 110.094 92.2559 102.028 97.6299 100.622Z" fill="#0E4B44"/>
<path d="M87.9695 275.478C89.1855 281.933 87.7883 288.606 84.0851 294.031C80.3819 299.456 74.6759 303.189 68.2215 304.408L66.9375 297.586C70.2606 296.96 73.337 295.401 75.8078 293.092C78.2786 290.783 80.0418 287.82 80.8916 284.547C81.7414 281.273 81.6428 277.826 80.6074 274.607C79.5719 271.388 77.6422 268.53 75.0435 266.366L79.7075 261.234C84.0139 264.893 86.9309 269.923 87.9695 275.478Z" fill="#21948C"/>
<path d="M79.7078 261.234L75.0438 266.366C72.0921 263.9 68.4219 262.455 64.5814 262.247C60.7409 262.04 56.9362 263.08 53.7358 265.213C50.5354 267.346 48.111 270.458 46.8248 274.082C45.5386 277.707 45.4597 281.651 46.5998 285.324L46.4898 285.358L39.7578 286.63C39.5738 285.98 39.4258 285.324 39.2978 284.656C38.346 279.619 38.9809 274.411 41.1148 269.75C43.2487 265.089 46.7764 261.206 51.2113 258.635C55.6461 256.064 60.7694 254.933 65.8743 255.398C70.9792 255.863 75.8141 257.9 79.7118 261.23L79.7078 261.234Z" fill="#0E4B44"/>
<path d="M73.5899 345.938L75.6659 356.938L57.1219 360.44L55.0459 349.432L73.5899 345.938Z" fill="white"/>
<path d="M70.5002 329.536L72.5762 340.536L54.0242 344.038L51.9502 333.032L70.5002 329.536Z" fill="white"/>
<path d="M69.6559 217.588C69.836 218.552 69.7264 219.547 69.3411 220.449C68.9557 221.35 68.3118 222.117 67.4907 222.653C66.6696 223.189 65.7082 223.469 64.7278 223.459C63.7474 223.448 62.7921 223.148 61.9826 222.595C61.173 222.041 60.5455 221.261 60.1793 220.351C59.8131 219.442 59.7246 218.444 59.9251 217.485C60.1256 216.525 60.6059 215.646 61.3056 214.959C62.0052 214.273 62.8927 213.808 63.8559 213.626C64.4969 213.505 65.1555 213.511 65.794 213.645C66.4325 213.778 67.0385 214.037 67.5771 214.405C68.1158 214.773 68.5766 215.243 68.9333 215.789C69.29 216.335 69.5356 216.947 69.6559 217.588Z" fill="#0E4B44"/>
<path d="M67.4035 313.136L69.4795 324.134L50.9275 327.636L48.8535 316.63L67.4035 313.136Z" fill="white"/>
<path d="M66.9379 297.586L68.2219 304.408C62.1119 305.559 55.7923 304.371 50.5182 301.078C45.2442 297.785 41.4017 292.629 39.7539 286.634L46.4859 285.362L46.5959 285.328C47.8896 289.512 50.678 293.075 54.4296 295.335C58.1812 297.596 62.6336 298.397 66.9379 297.586Z" fill="white"/>
<path d="M48.8859 221.502C49.0676 222.466 48.9595 223.461 48.5753 224.364C48.1911 225.266 47.548 226.034 46.7274 226.571C45.9068 227.108 44.9454 227.39 43.9647 227.38C42.9841 227.371 42.0282 227.071 41.2179 226.519C40.4076 225.966 39.7792 225.186 39.4122 224.277C39.0452 223.367 38.956 222.37 39.1559 221.409C39.3558 220.449 39.8359 219.57 40.5354 218.883C41.2349 218.195 42.1225 217.731 43.0859 217.548C43.7264 217.426 44.3845 217.432 45.0227 217.565C45.6609 217.698 46.2666 217.956 46.8052 218.323C47.3438 218.69 47.8048 219.16 48.1618 219.705C48.5188 220.251 48.7649 220.861 48.8859 221.502Z" fill="#0E4B44"/>
<path d="M28.1178 225.424C28.2979 226.388 28.1884 227.383 27.803 228.285C27.4176 229.186 26.7737 229.953 25.9526 230.489C25.1315 231.025 24.1701 231.305 23.1897 231.295C22.2093 231.284 21.2541 230.984 20.4445 230.431C19.6349 229.877 19.0074 229.097 18.6412 228.188C18.275 227.278 18.1866 226.28 18.387 225.321C18.5875 224.361 19.0679 223.482 19.7675 222.795C20.4671 222.109 21.3546 221.644 22.3178 221.462C22.9589 221.34 23.6177 221.346 24.2564 221.48C24.8951 221.613 25.5012 221.871 26.04 222.239C26.5788 222.607 27.0396 223.078 27.3962 223.624C27.7527 224.171 27.998 224.782 28.1178 225.424Z" fill="#0E4B44"/>
<path d="M131.854 184.258C134.333 183.58 136.459 181.981 137.797 179.787C139.135 177.594 139.585 174.972 139.054 172.458L138.844 171.442C134.899 152.134 136.959 132.081 144.746 113.978C148.569 104.875 149.768 94.8852 148.208 85.137C146.648 75.3887 142.392 66.2714 135.92 58.8162C129.448 51.361 121.02 45.8655 111.587 42.9511C102.155 40.0367 92.0956 39.8198 82.5464 42.3249C72.9973 44.83 64.3396 49.9572 57.5527 57.1265C50.7657 64.2958 46.1202 73.2211 44.1417 82.8931C42.1631 92.5651 42.9305 102.598 46.3569 111.856C49.7833 121.115 55.732 129.23 63.5303 135.284C79.3793 147.527 91.0982 164.33 97.1103 183.434C97.7525 185.478 99.0291 187.265 100.755 188.536C102.481 189.806 104.567 190.493 106.71 190.498C107.538 190.495 108.362 190.393 109.164 190.194" stroke="white" stroke-width="1.352" stroke-linecap="round" stroke-linejoin="round"/>
<path d="M106.238 199.324C105.648 198.847 105.173 198.244 104.845 197.56C104.518 196.876 104.346 196.128 104.344 195.37C104.345 194.249 104.718 193.161 105.402 192.274C106.087 191.388 107.046 190.752 108.13 190.468L109.172 190.198L110.456 189.86L130.196 184.694L131.854 184.262L133.272 183.89C133.916 183.72 134.588 183.679 135.248 183.769C135.909 183.858 136.545 184.077 137.121 184.413C137.697 184.749 138.201 185.195 138.604 185.726C139.007 186.256 139.302 186.861 139.472 187.506C139.579 187.926 139.633 188.358 139.634 188.792C139.634 189.913 139.263 191.003 138.578 191.891C137.893 192.779 136.933 193.415 135.848 193.7L110.7 200.28C109.934 200.483 109.131 200.502 108.357 200.335C107.582 200.168 106.858 199.82 106.244 199.32" stroke="white" stroke-width="1.352" stroke-linecap="round" stroke-linejoin="round"/>
<path d="M110.28 108.648L130.176 184.616" stroke="white" stroke-width="1.352" stroke-linecap="round" stroke-linejoin="round"/>
<path d="M100.74 113.636C104.452 116.368 108.834 116.408 110.28 108.648" stroke="white" stroke-width="1.352" stroke-linecap="round" stroke-linejoin="round"/>
<path d="M100.74 113.636C103.162 108.16 102.668 99.3038 97.6299 100.622C92.2559 102.028 95.9279 110.094 100.74 113.636Z" stroke="white" stroke-width="1.352" stroke-linecap="round" stroke-linejoin="round"/>
<path d="M110.436 189.788L90.5381 113.82C95.1901 120.126 98.8541 117.91 100.738 113.636" stroke="white" stroke-width="1.352" stroke-linecap="round" stroke-linejoin="round"/>
<path d="M139.168 194.02C140.135 194.441 140.946 195.152 141.49 196.056C142.034 196.96 142.283 198.01 142.202 199.062C142.121 200.113 141.714 201.113 141.038 201.923C140.363 202.733 139.452 203.312 138.432 203.58L113.288 210.164C112.643 210.332 111.972 210.372 111.313 210.281C110.653 210.19 110.018 209.97 109.444 209.633C108.869 209.297 108.367 208.85 107.965 208.32C107.563 207.789 107.27 207.184 107.102 206.54C106.99 206.121 106.934 205.689 106.934 205.256C106.935 204.135 107.307 203.047 107.992 202.16C108.677 201.274 109.636 200.638 110.72 200.354L135.862 193.77C136.961 193.483 138.124 193.571 139.168 194.02Z" stroke="white" stroke-width="1.352" stroke-linecap="round" stroke-linejoin="round"/>
<path d="M132.312 215.748L123.828 217.966C122.54 218.304 121.198 218.386 119.878 218.205C118.558 218.024 117.287 217.585 116.138 216.913C114.988 216.24 113.982 215.348 113.178 214.286C112.373 213.224 111.786 212.015 111.45 210.726L139.554 203.37C139.773 204.211 139.883 205.077 139.884 205.946C139.882 208.186 139.137 210.363 137.767 212.136C136.398 213.909 134.48 215.179 132.312 215.748Z" stroke="white" stroke-width="1.352" stroke-linecap="round" stroke-linejoin="round"/>
<path d="M360.74 192.364C373.405 199.757 382.704 211.779 386.677 225.896C390.649 240.013 388.984 255.121 382.032 268.034C375.081 280.947 363.387 290.655 349.416 295.113C335.444 299.57 320.288 298.428 307.143 291.927C293.998 285.425 283.891 274.073 278.954 260.264C274.016 246.455 274.635 231.269 280.678 217.907C286.722 204.545 297.718 194.052 311.348 188.641C324.978 183.23 340.177 183.323 353.74 188.902C356.151 189.889 358.49 191.044 360.74 192.358" stroke="white" stroke-width="1.352" stroke-linecap="round" stroke-linejoin="round"/>
<path d="M138.878 193.168L139.006 193.142L178.082 185.772" stroke="white" stroke-width="1.352" stroke-linecap="round" stroke-linejoin="round"/>
<path d="M240.05 225.64L261.96 341.814L40.4299 383.608L9.12793 217.642L106.238 199.32H106.244" stroke="white" stroke-width="1.352" stroke-linecap="round" stroke-linejoin="round"/>
<path d="M36.9814 237.998L168.737 213.14" stroke="white" stroke-width="1.352" stroke-linecap="round" stroke-linejoin="round"/>
<path d="M28.1178 225.424C28.2979 226.388 28.1884 227.383 27.803 228.285C27.4176 229.186 26.7737 229.953 25.9526 230.489C25.1315 231.025 24.1701 231.305 23.1897 231.295C22.2093 231.284 21.2541 230.984 20.4445 230.431C19.6349 229.877 19.0074 229.097 18.6412 228.188C18.275 227.278 18.1866 226.28 18.387 225.321C18.5875 224.361 19.0679 223.482 19.7675 222.795C20.4671 222.109 21.3546 221.644 22.3178 221.462C22.9589 221.34 23.6177 221.346 24.2564 221.48C24.8951 221.613 25.5012 221.871 26.04 222.239C26.5788 222.607 27.0396 223.078 27.3962 223.624C27.7527 224.171 27.998 224.782 28.1178 225.424Z" stroke="white" stroke-width="1.352" stroke-linecap="round" stroke-linejoin="round"/>
<path d="M48.8859 221.502C49.0676 222.466 48.9595 223.461 48.5753 224.364C48.1911 225.266 47.548 226.034 46.7274 226.571C45.9068 227.108 44.9454 227.39 43.9647 227.38C42.9841 227.371 42.0282 227.071 41.2179 226.519C40.4076 225.966 39.7792 225.186 39.4122 224.277C39.0452 223.367 38.956 222.37 39.1559 221.409C39.3558 220.449 39.8359 219.57 40.5354 218.883C41.2349 218.195 42.1225 217.731 43.0859 217.548C43.7264 217.426 44.3845 217.432 45.0227 217.565C45.6609 217.698 46.2666 217.956 46.8052 218.323C47.3438 218.69 47.8048 219.16 48.1618 219.705C48.5188 220.251 48.7649 220.861 48.8859 221.502Z" stroke="white" stroke-width="1.352" stroke-linecap="round" stroke-linejoin="round"/>
<path d="M69.6559 217.588C69.836 218.552 69.7264 219.547 69.3411 220.449C68.9557 221.35 68.3118 222.117 67.4907 222.653C66.6696 223.189 65.7082 223.469 64.7278 223.459C63.7474 223.448 62.7921 223.148 61.9826 222.595C61.173 222.041 60.5455 221.261 60.1793 220.351C59.8131 219.442 59.7246 218.444 59.9251 217.485C60.1256 216.525 60.6059 215.646 61.3056 214.959C62.0052 214.273 62.8927 213.808 63.8559 213.626C64.4969 213.505 65.1555 213.511 65.794 213.645C66.4325 213.778 67.0385 214.037 67.5771 214.405C68.1158 214.773 68.5766 215.243 68.9333 215.789C69.29 216.335 69.5356 216.947 69.6559 217.588Z" stroke="white" stroke-width="1.352" stroke-linecap="round" stroke-linejoin="round"/>
<path d="M275.63 232.44L240.05 225.64L172.916 212.808L178.082 185.772L178.752 182.298L199.398 74.2618L376.83 108.18L360.74 192.358V192.364" stroke="white" stroke-width="1.352" stroke-linecap="round" stroke-linejoin="round"/>
<path d="M215.428 97.0318L356.596 124.014" stroke="white" stroke-width="1.352" stroke-linecap="round" stroke-linejoin="round"/>
<path d="M211.776 86.1238C211.622 86.9284 211.233 87.6693 210.658 88.2529C210.084 88.8365 209.349 89.2366 208.546 89.4025C207.744 89.5684 206.911 89.4927 206.152 89.1851C205.392 88.8774 204.742 88.3515 204.281 87.6739C203.821 86.9963 203.572 86.1974 203.566 85.3782C203.559 84.5591 203.796 83.7565 204.246 83.0719C204.696 82.3873 205.338 81.8514 206.093 81.5321C206.847 81.2127 207.679 81.1242 208.484 81.2778C209.018 81.3797 209.527 81.586 209.982 81.8847C210.437 82.1835 210.828 82.5688 211.134 83.0189C211.439 83.4689 211.653 83.9747 211.764 84.5074C211.874 85.0402 211.878 85.5894 211.776 86.1238Z" stroke="white" stroke-width="1.352" stroke-linecap="round" stroke-linejoin="round"/>
<path d="M229.112 89.4338C228.958 90.2388 228.569 90.9801 227.994 91.5641C227.419 92.148 226.684 92.5483 225.881 92.7144C225.079 92.8805 224.245 92.8049 223.485 92.4971C222.726 92.1893 222.074 91.6632 221.614 90.9853C221.153 90.3074 220.904 89.5082 220.898 88.6886C220.891 87.8691 221.128 87.0661 221.578 86.3811C222.028 85.6961 222.671 85.1599 223.426 84.8404C224.18 84.5208 225.013 84.4322 225.818 84.5858C226.353 84.687 226.863 84.8929 227.318 85.1915C227.773 85.4901 228.165 85.8757 228.471 86.3261C228.777 86.7764 228.991 87.2828 229.101 87.8161C229.211 88.3493 229.215 88.8991 229.112 89.4338Z" stroke="white" stroke-width="1.352" stroke-linecap="round" stroke-linejoin="round"/>
<path d="M246.452 92.7538C246.297 93.5581 245.907 94.2985 245.331 94.8812C244.755 95.4639 244.019 95.8628 243.217 96.0276C242.414 96.1924 241.581 96.1156 240.822 95.807C240.063 95.4984 239.413 94.9717 238.953 94.2936C238.493 93.6155 238.245 92.8164 238.239 91.9972C238.234 91.178 238.471 90.3754 238.921 89.691C239.371 89.0066 240.014 88.4709 240.769 88.1517C241.523 87.8326 242.355 87.7442 243.16 87.8978C244.24 88.1061 245.193 88.7344 245.811 89.6448C246.428 90.5553 246.659 91.6734 246.452 92.7538Z" stroke="white" stroke-width="1.352" stroke-linecap="round" stroke-linejoin="round"/>
<path d="M352.858 175.536C354.372 177.788 354.724 181.756 353.75 188.902" stroke="white" stroke-width="1.352" stroke-linecap="round" stroke-linejoin="round"/>
<path d="M338.788 184.616C340.756 179.14 342.71 174.576 345.69 173.238" stroke="white" stroke-width="1.352" stroke-linecap="round" stroke-linejoin="round"/>
<path d="M303.504 152.3C307.96 158.648 302.904 177.632 303.728 192.1" stroke="white" stroke-width="1.352" stroke-linecap="round" stroke-linejoin="round"/>
<path d="M268.038 124.576C277.862 136.724 258.238 190.504 271.48 192.648C284.63 194.77 286.28 157.006 296.38 150.948" stroke="white" stroke-width="1.352" stroke-linecap="round" stroke-linejoin="round"/>
<path d="M216.766 127.212C226.866 139.564 204.036 201.828 224.656 205.284C245.656 208.806 246.456 130.118 261.028 122.75" stroke="white" stroke-width="1.352" stroke-linecap="round" stroke-linejoin="round"/>
<path d="M178.752 182.298C187.088 183.406 194.998 131.992 209.302 125.718" stroke="white" stroke-width="1.352" stroke-linecap="round" stroke-linejoin="round"/>
<path d="M79.7079 261.234C82.6549 263.749 84.9708 266.92 86.4692 270.493C87.9677 274.066 88.6069 277.94 88.3356 281.805C88.0642 285.67 86.8899 289.417 84.9069 292.746C82.924 296.074 80.1877 298.891 76.9182 300.969C73.6486 303.048 69.937 304.33 66.0817 304.713C62.2263 305.097 58.3349 304.57 54.7201 303.176C51.1054 301.781 47.8683 299.558 45.2689 296.685C42.6696 293.812 40.7806 290.37 39.7539 286.634C39.5699 285.984 39.4219 285.328 39.2939 284.66C38.3421 279.623 38.977 274.415 41.1109 269.754C43.2448 265.093 46.7725 261.21 51.2074 258.639C55.6422 256.068 60.7655 254.937 65.8704 255.402C70.9753 255.867 75.8102 257.904 79.7079 261.234Z" stroke="white" stroke-width="1.352" stroke-linecap="round" stroke-linejoin="round"/>
<path d="M75.0436 266.366C78.1582 268.959 80.2965 272.536 81.1063 276.508C81.9161 280.479 81.349 284.607 79.4985 288.213C77.6479 291.819 74.6244 294.687 70.9259 296.345C67.2274 298.002 63.0746 298.351 59.1516 297.333C55.2286 296.314 51.7694 293.99 49.3439 290.743C46.9184 287.496 45.6713 283.52 45.808 279.469C45.9447 275.418 47.4571 271.535 50.096 268.459C52.7349 265.383 56.3429 263.297 60.3256 262.546C62.9086 262.051 65.5693 262.137 68.1149 262.798C70.6605 263.459 73.0273 264.677 75.0436 266.366Z" stroke="white" stroke-width="1.352" stroke-linecap="round" stroke-linejoin="round"/>
<path d="M66.9375 297.586L68.2215 304.408" stroke="white" stroke-width="1.352" stroke-linecap="round" stroke-linejoin="round"/>
<path d="M75.0439 266.366L79.7079 261.234" stroke="white" stroke-width="1.352" stroke-linecap="round" stroke-linejoin="round"/>
<path d="M46.4859 285.362L39.7539 286.634L39.6719 286.648" stroke="white" stroke-width="1.352" stroke-linecap="round" stroke-linejoin="round"/>
<path d="M224.696 328.826L245.106 324.974L226.508 226.376" stroke="white" stroke-width="1.352" stroke-linecap="round" stroke-linejoin="round"/>
<path d="M197.004 334.046L214.908 330.672" stroke="white" stroke-width="1.352" stroke-linecap="round" stroke-linejoin="round"/>
<path d="M187.222 335.892L197.004 334.052" stroke="white" stroke-width="1.352" stroke-linecap="round" stroke-linejoin="round"/>
<path d="M169.313 339.272L187.221 335.898" stroke="white" stroke-width="1.352" stroke-linecap="round" stroke-linejoin="round"/>
<path d="M141.622 344.498L159.53 341.118" stroke="white" stroke-width="1.352" stroke-linecap="round" stroke-linejoin="round"/>
<path d="M113.316 349.838L131.84 346.344" stroke="white" stroke-width="1.352" stroke-linecap="round" stroke-linejoin="round"/>
<path d="M69.4795 324.134L50.9275 327.636L48.8535 316.63L67.4035 313.136L69.4795 324.134Z" stroke="white" stroke-width="1.352" stroke-linecap="round" stroke-linejoin="round"/>
<path d="M72.5762 340.536L54.0242 344.038L51.9502 333.032L70.5002 329.536L72.5762 340.536Z" stroke="white" stroke-width="1.352" stroke-linecap="round" stroke-linejoin="round"/>
<path d="M75.6659 356.938L57.1219 360.44L55.0459 349.432L73.5899 345.938L75.6659 356.938Z" stroke="white" stroke-width="1.352" stroke-linecap="round" stroke-linejoin="round"/>
<path d="M141.622 344.498L131.84 346.344L129.764 335.338L112.828 245.584L122.618 243.738L139.546 333.492L141.622 344.498Z" stroke="white" stroke-width="1.352" stroke-linecap="round" stroke-linejoin="round"/>
<path d="M169.314 339.272L159.53 341.118L150.228 291.82L140.52 240.358L150.31 238.512L160.018 289.974L169.314 339.272Z" stroke="white" stroke-width="1.352" stroke-linecap="round" stroke-linejoin="round"/>
<path d="M197.004 334.052L187.222 335.898V335.892L182.05 308.49L168.212 235.138L177.994 233.292L191.834 306.646L197.004 334.046V334.052Z" stroke="white" stroke-width="1.352" stroke-linecap="round" stroke-linejoin="round"/>
<path d="M224.696 328.826L214.908 330.672L202.59 265.344L195.902 229.912L205.686 228.066L212.372 263.498L224.696 328.826Z" stroke="white" stroke-width="1.352" stroke-linecap="round" stroke-linejoin="round"/>
<path d="M129.764 335.338L139.546 333.492" stroke="white" stroke-width="1.352" stroke-linecap="round" stroke-linejoin="round"/>
<path d="M150.228 291.82L160.01 289.974" stroke="white" stroke-width="1.352" stroke-linecap="round" stroke-linejoin="round"/>
<path d="M182.05 308.49L191.834 306.646" stroke="white" stroke-width="1.352" stroke-linecap="round" stroke-linejoin="round"/>
<path d="M202.59 265.344L212.372 263.498" stroke="white" stroke-width="1.352" stroke-linecap="round" stroke-linejoin="round"/>
<path d="M372.395 201.348L331.999 241.744L291.605 282.138" stroke="white" stroke-width="1.352" stroke-linecap="round" stroke-linejoin="round"/>
<path d="M291.605 201.348L331.999 241.744" stroke="white" stroke-width="1.352" stroke-linecap="round" stroke-linejoin="round"/>
<path d="M79.2484 33.5038L74.3604 15.3838" stroke="white" stroke-width="1.352" stroke-linecap="round" stroke-linejoin="round"/>
<path d="M100.43 33.5038L102.404 17.2578" stroke="white" stroke-width="1.352" stroke-linecap="round" stroke-linejoin="round"/>
<path d="M60.5481 45.9698L49.7861 33.5038" stroke="white" stroke-width="1.352" stroke-linecap="round" stroke-linejoin="round"/>
</svg>
