<svg width="144" height="144" viewBox="0 0 144 144" fill="none" xmlns="http://www.w3.org/2000/svg">
<path d="M133.674 72.6488C137.52 76.4949 139.681 81.7113 139.681 87.1505C139.681 92.5897 137.52 97.8061 133.674 101.652C129.828 105.498 124.612 107.659 119.173 107.659C113.733 107.659 108.517 105.498 104.671 101.652L119.173 87.1505L133.674 72.6488Z" fill="#0E4B44"/>
<path d="M133.674 72.6488L119.173 87.1491L104.671 72.6474C107.535 69.7869 111.18 67.8366 115.149 67.0418C119.118 66.2469 123.233 66.6429 126.978 68.1799C127.843 68.5341 128.683 68.9487 129.49 69.4204C131.019 70.3112 132.425 71.3964 133.674 72.6488Z" fill="white"/>
<path d="M126.659 63.3835C127.202 64.1919 127.329 65.6162 126.979 68.1813C125.256 67.4729 123.445 67.0033 121.595 66.7857L121.609 66.6421C122.316 64.6765 123.017 63.0382 124.087 62.558C124.056 62.8721 124.135 63.1871 124.308 63.4506C124.482 63.7142 124.74 63.9104 125.041 64.0067C125.341 64.1031 125.666 64.0937 125.96 63.9802C126.255 63.8667 126.501 63.6559 126.66 63.3828L126.659 63.3835Z" fill="#21948C"/>
<path d="M125.723 61.3332C126.083 61.4017 126.401 61.6105 126.607 61.9136C126.813 62.2166 126.89 62.5892 126.822 62.9492C126.794 63.1024 126.739 63.2494 126.66 63.3835C126.318 62.9097 125.808 62.5849 125.235 62.4761C124.854 62.3688 124.447 62.398 124.086 62.5587C124.091 62.5177 124.098 62.4739 124.106 62.4323C124.14 62.2538 124.208 62.0838 124.308 61.9318C124.407 61.7799 124.536 61.6492 124.686 61.547C124.836 61.4449 125.005 61.3735 125.183 61.3368C125.361 61.3001 125.544 61.2989 125.723 61.3332Z" fill="white"/>
<path d="M126.659 63.3836C126.501 63.6567 126.254 63.8675 125.96 63.9809C125.666 64.0944 125.341 64.1038 125.041 64.0075C124.74 63.9111 124.482 63.7149 124.308 63.4513C124.134 63.1878 124.056 62.8728 124.086 62.5587C124.448 62.398 124.854 62.3688 125.235 62.4761C125.808 62.5851 126.318 62.9099 126.659 63.3836Z" fill="white"/>
<path d="M119.172 87.1491L104.67 101.651C102.765 99.7469 101.253 97.4863 100.222 94.998C99.1909 92.5097 98.6602 89.8426 98.6602 87.1491C98.6602 84.4556 99.1909 81.7885 100.222 79.3002C101.253 76.8119 102.765 74.5513 104.67 72.6474L119.172 87.1491Z" fill="#21948C"/>
<path d="M108.01 52.9897C108.188 53.0235 108.358 53.0921 108.51 53.1917C108.662 53.2913 108.793 53.4198 108.895 53.57C108.997 53.7202 109.068 53.8891 109.105 54.0669C109.142 54.2448 109.143 54.4281 109.109 54.6064C109.081 54.7609 109.025 54.9089 108.944 55.0429C108.696 54.6729 108.314 54.4136 107.878 54.32C107.627 54.258 107.365 54.2471 107.108 54.2879C106.852 54.3287 106.607 54.4204 106.387 54.5576C106.353 54.339 106.371 54.1154 106.442 53.9056C106.512 53.6959 106.632 53.5061 106.791 53.3524C106.95 53.1987 107.144 53.0855 107.356 53.0224C107.568 52.9592 107.793 52.948 108.01 52.9897Z" fill="white"/>
<path d="M108.943 55.0429C110.543 57.3215 108.728 64.1359 109.024 69.3292C106.372 70.8418 104.09 72.9265 102.346 75.4318C100.601 77.937 99.4369 80.7997 98.9378 83.8115L86.1663 81.3707L62.0684 76.7646L63.9227 67.0599L64.1632 65.8129C67.1554 66.2106 69.9948 47.7555 75.1292 45.5034C75.1151 45.8329 75.2192 46.1566 75.4227 46.4161C75.6263 46.6756 75.9159 46.8537 76.2392 46.9185C76.5626 46.9832 76.8985 46.9302 77.1862 46.7691C77.474 46.6079 77.6947 46.3492 77.8084 46.0397C81.4339 50.4734 73.239 72.8233 80.6406 74.0638C88.1786 75.328 88.4657 47.0828 93.6964 44.438C93.7224 44.7207 93.8348 44.9885 94.0185 45.2049C94.2021 45.4214 94.448 45.576 94.7227 45.6476C94.9973 45.7193 95.2874 45.7045 95.5534 45.6053C95.8194 45.5062 96.0483 45.3274 96.2091 45.0935C99.7354 49.454 92.6913 68.7585 97.4446 69.5281C102.165 70.2898 102.757 56.7343 106.382 54.5598C106.426 54.8421 106.555 55.1041 106.753 55.3097C106.952 55.5153 107.209 55.6543 107.489 55.7076C107.77 55.7608 108.06 55.7257 108.32 55.607C108.58 55.4884 108.796 55.292 108.94 55.0451L108.943 55.0429Z" fill="#21948C"/>
<path d="M107.879 54.32C108.314 54.4136 108.696 54.6729 108.944 55.0429C108.8 55.2899 108.584 55.4862 108.324 55.6049C108.064 55.7236 107.774 55.7587 107.494 55.7054C107.213 55.6522 106.956 55.5132 106.758 55.3076C106.559 55.102 106.43 54.84 106.387 54.5576C106.607 54.4204 106.852 54.3287 107.109 54.2879C107.365 54.2471 107.627 54.258 107.879 54.32Z" fill="white"/>
<path d="M95.3315 42.9534C95.6916 43.0226 96.0096 43.2319 96.2158 43.5352C96.422 43.8385 96.4995 44.2112 96.4313 44.5716C96.3964 44.7585 96.3217 44.9357 96.2123 45.0913C95.8735 44.6599 95.3882 44.3679 94.8483 44.2708C94.4557 44.1933 94.0484 44.2515 93.6932 44.4359C93.6814 44.3078 93.6879 44.1787 93.7126 44.0525C93.7464 43.8739 93.8152 43.7037 93.9149 43.5518C94.0147 43.3998 94.1434 43.269 94.2938 43.1669C94.4442 43.0648 94.6133 42.9933 94.7914 42.9567C94.9694 42.9201 95.153 42.919 95.3315 42.9534Z" fill="white"/>
<path d="M96.2138 45.0913C96.0531 45.3253 95.8242 45.504 95.5582 45.6032C95.2922 45.7024 95.0021 45.7171 94.7275 45.6455C94.4528 45.5738 94.2069 45.4193 94.0232 45.2028C93.8396 44.9864 93.7271 44.7185 93.7012 44.4359C94.0564 44.2515 94.4637 44.1933 94.8563 44.2708C95.3938 44.3694 95.8767 44.6613 96.2138 45.0913Z" fill="white"/>
<path d="M87.2834 31.9257C87.5729 31.9806 87.8395 32.1202 88.0495 32.3268C88.2596 32.5333 88.4036 32.7976 88.4634 33.086C88.5233 33.3745 88.4962 33.6742 88.3856 33.9472C88.2751 34.2203 88.086 34.4544 87.8423 34.62C87.5987 34.7855 87.3114 34.8751 87.0168 34.8773C86.7222 34.8795 86.4336 34.7943 86.1874 34.6325C85.9413 34.4706 85.7487 34.2394 85.634 33.968C85.5194 33.6966 85.4878 33.3974 85.5432 33.108C85.6184 32.7211 85.8436 32.3796 86.1696 32.1581C86.4956 31.9366 86.896 31.853 87.2834 31.9257Z" fill="#0E4B44"/>
<path d="M81.058 30.7368C81.347 30.7919 81.6132 30.9315 81.8229 31.1379C82.0326 31.3443 82.1764 31.6082 82.2361 31.8964C82.2958 32.1845 82.2686 32.4839 82.1581 32.7566C82.0476 33.0293 81.8588 33.2631 81.6154 33.4284C81.372 33.5938 81.085 33.6832 80.7908 33.6855C80.4965 33.6877 80.2082 33.6026 79.9624 33.441C79.7165 33.2793 79.5241 33.0484 79.4095 32.7774C79.2949 32.5064 79.2632 32.2075 79.3185 31.9185C79.3926 31.5312 79.6174 31.1891 79.9436 30.9676C80.2698 30.746 80.6706 30.663 81.058 30.7368Z" fill="#0E4B44"/>
<path d="M76.231 94.9577L80.6547 118.407L77.1413 119.07L72.7197 95.6204L76.231 94.9577Z" fill="#21948C"/>
<path d="M76.7703 44.2025C77.1306 44.2718 77.4487 44.4811 77.6549 44.7846C77.8611 45.0881 77.9385 45.4609 77.8701 45.8214C77.8561 45.8948 77.8356 45.9669 77.8091 46.0368C77.4959 45.6413 77.0439 45.38 76.5449 45.306C76.0643 45.2313 75.5724 45.2989 75.1299 45.5005C75.1328 45.4338 75.1402 45.3674 75.1521 45.3017C75.2212 44.9414 75.4304 44.6234 75.7338 44.4173C76.0372 44.2112 76.41 44.134 76.7703 44.2025Z" fill="white"/>
<path d="M76.5442 45.3067C77.0432 45.3807 77.4952 45.642 77.8084 46.0375C77.6947 46.3471 77.474 46.6057 77.1862 46.7669C76.8985 46.928 76.5626 46.981 76.2392 46.9163C75.9159 46.8516 75.6263 46.6734 75.4227 46.4139C75.2192 46.1544 75.1151 45.8307 75.1292 45.5012C75.5718 45.2997 76.0637 45.232 76.5442 45.3067Z" fill="white"/>
<path d="M70.3213 82.9086L73.8338 82.2459L76.2332 94.964L72.7207 95.6266L70.3213 82.9086Z" fill="#0E4B44"/>
<path d="M74.8353 29.5479C75.1244 29.603 75.3906 29.7426 75.6003 29.949C75.81 30.1554 75.9538 30.4194 76.0134 30.7075C76.0731 30.9956 76.046 31.295 75.9355 31.5677C75.825 31.8404 75.6361 32.0742 75.3927 32.2396C75.1493 32.4049 74.8623 32.4944 74.5681 32.4966C74.2739 32.4988 73.9856 32.4137 73.7397 32.2521C73.4938 32.0905 73.3014 31.8595 73.1868 31.5885C73.0722 31.3175 73.0405 31.0186 73.0958 30.7296C73.1705 30.3426 73.3954 30.0009 73.7215 29.7794C74.0475 29.558 74.448 29.4747 74.8353 29.5479Z" fill="#0E4B44"/>
<path d="M68.8596 110.446L70.7154 120.281V120.283L67.2042 120.944L65.3477 111.108L68.8596 110.446Z" fill="#21948C"/>
<path d="M60.3828 84.7818L63.8953 84.1191L68.8628 110.449L65.3503 111.112L60.3828 84.7818Z" fill="#0E4B44"/>
<path d="M57.438 104.461L60.7748 122.157L57.2628 122.82L53.9238 105.124L57.4351 104.461H57.438Z" fill="#21948C"/>
<path d="M53.9546 85.989L57.4393 104.461H57.4364L53.9251 105.124L50.4404 86.6516L53.9546 85.989Z" fill="#0E4B44"/>
<path d="M52.8211 29.1258C53.8862 33.1622 53.5832 37.4377 51.9596 41.2836C49.1642 47.7817 48.4249 54.9797 49.841 61.9104L49.9164 62.2751C50.1069 63.1775 49.9454 64.1187 49.465 64.906C48.9846 65.6933 48.2216 66.2674 47.332 66.5107L46.7368 66.6658L46.7296 66.6392L39.5858 39.3739C39.0667 42.1594 37.4938 42.145 36.1613 41.1644C37.0307 39.1988 36.8534 36.0199 35.045 36.493C33.116 36.9955 34.4341 39.893 36.1613 41.1644C35.4844 42.6985 34.1692 43.494 32.5 41.2304L39.6425 68.4993L39.6497 68.5237L39.1888 68.6451C38.9006 68.7167 38.6048 68.7533 38.3079 68.7542C37.5386 68.7525 36.7899 68.5058 36.1703 68.0498C35.5507 67.5939 35.0924 66.9525 34.8619 66.2186C32.7029 59.3609 28.4951 53.3292 22.8047 48.935C20.4208 47.0843 18.5124 44.6921 17.2375 41.9566C15.9626 39.2212 15.3581 36.2213 15.474 33.2056C15.5898 30.1899 16.4228 27.2452 17.9038 24.6156C19.3848 21.9861 21.4712 19.7474 23.9901 18.085C26.5089 16.4227 29.3877 15.3847 32.3878 15.057C35.3879 14.7292 38.4229 15.1213 41.2413 16.2005C44.0596 17.2798 46.5801 19.0153 48.5939 21.2631C50.6077 23.5109 52.0568 26.2063 52.8211 29.1258Z" fill="#0E4B44"/>
<path d="M50.989 71.2295C51.0505 71.4606 51.0657 71.7015 51.0336 71.9384C51.0016 72.1754 50.923 72.4036 50.8023 72.61C50.6817 72.8164 50.5214 72.9969 50.3306 73.1411C50.1399 73.2852 49.9225 73.3902 49.6911 73.45L40.6656 75.8134C40.4343 75.8738 40.1935 75.8881 39.9567 75.8555C39.72 75.8228 39.492 75.7438 39.2858 75.623C39.0796 75.5022 38.8992 75.342 38.7549 75.1514C38.6107 74.9609 38.5054 74.7438 38.4451 74.5125C38.4051 74.3621 38.3848 74.2072 38.3848 74.0516C38.3853 73.6495 38.519 73.2588 38.7648 72.9405C39.0106 72.6222 39.3548 72.3942 39.7438 72.292L48.7685 69.9287C49.1631 69.8257 49.5807 69.8572 49.9552 70.0184C50.2084 70.1283 50.4331 70.2945 50.6122 70.5044C50.7914 70.7143 50.9203 70.9623 50.989 71.2295Z" fill="#21948C"/>
<path d="M46.5791 120.747L50.0917 120.085L50.8367 124.036L47.3241 124.699L46.5791 120.747Z" fill="#21948C"/>
<path d="M50.0929 73.3746C50.1713 73.6766 50.2111 73.9873 50.2113 74.2993C50.2102 75.1035 49.943 75.8846 49.4513 76.521C48.9597 77.1573 48.2712 77.613 47.4934 77.817L44.448 78.6132C43.9856 78.7348 43.5038 78.764 43.0301 78.6991C42.5564 78.6343 42.1002 78.4766 41.6875 78.2352C41.2748 77.9939 40.9137 77.6734 40.625 77.2924C40.3363 76.9113 40.1256 76.477 40.0049 76.0144L50.0929 73.3746Z" fill="#21948C"/>
<path d="M44.0141 87.8648L50.0905 120.082L46.5792 120.745L40.5 88.5275L44.0141 87.8648Z" fill="#0E4B44"/>
<path d="M50.062 67.6788C50.1004 67.8296 50.1199 67.9847 50.1202 68.1404C50.1203 68.543 49.987 68.9342 49.7411 69.253C49.4952 69.5718 49.1506 69.8 48.7612 69.9021L39.7364 72.2655C39.4615 72.3383 39.1733 72.3451 38.8953 72.2852C38.6173 72.2253 38.3574 72.1004 38.1369 71.9209C37.9254 71.7496 37.7546 71.5333 37.637 71.2878C37.5194 71.0424 37.4579 70.7738 37.457 70.5016C37.4576 70.0994 37.5912 69.7088 37.837 69.3905C38.0829 69.0722 38.4271 68.8442 38.816 68.742L39.1901 68.6451L39.6509 68.5237L46.7367 66.6694L47.3318 66.5143L47.8408 66.3808C48.3075 66.259 48.8034 66.3272 49.2198 66.5705C49.6362 66.8139 49.9391 67.2124 50.062 67.6788Z" fill="#21948C"/>
<path d="M46.7272 66.6428L46.7344 66.6694L39.6486 68.5237L39.6415 68.4993L32.499 41.2304C34.1689 43.494 35.4841 42.6985 36.1603 41.1644C37.4928 42.145 39.0657 42.1594 39.5847 39.3739L46.7272 66.6428Z" fill="#0E4B44"/>
<path d="M35.0447 36.493C36.8531 36.0199 37.0304 39.1988 36.161 41.1644C34.4337 39.893 33.1156 36.9977 35.0447 36.493Z" fill="#0E4B44"/>
<path d="M31.5768 99.258C32.0133 101.575 31.5118 103.971 30.1825 105.918C28.8532 107.865 26.805 109.205 24.4882 109.643L24.0273 107.194C25.2202 106.969 26.3245 106.41 27.2114 105.581C28.0983 104.752 28.7312 103.688 29.0362 102.513C29.3413 101.338 29.3059 100.101 28.9342 98.9454C28.5625 97.7899 27.8698 96.7639 26.937 95.9872L28.6112 94.1451C30.1569 95.4587 31.204 97.264 31.5768 99.258Z" fill="#21948C"/>
<path d="M28.611 94.1451L26.9369 95.9872C25.8774 95.1021 24.5599 94.5835 23.1813 94.5089C21.8028 94.4344 20.4371 94.8078 19.2883 95.5735C18.1395 96.3392 17.2693 97.456 16.8076 98.7571C16.3459 100.058 16.3176 101.474 16.7268 102.792L16.6873 102.804L14.2709 103.261C14.2048 103.028 14.1517 102.792 14.1057 102.552C13.7641 100.744 13.992 98.875 14.758 97.202C15.5239 95.529 16.7902 94.135 18.3821 93.2122C19.974 92.2895 21.813 91.8835 23.6455 92.0504C25.4779 92.2172 27.2134 92.9486 28.6124 94.1436L28.611 94.1451Z" fill="#0E4B44"/>
<path d="M26.4152 124.55L27.1604 128.498L20.504 129.755L19.7588 125.804L26.4152 124.55Z" fill="white"/>
<path d="M25.306 118.662L26.0512 122.611L19.3919 123.868L18.6475 119.917L25.306 118.662Z" fill="white"/>
<path d="M25.0041 78.4782C25.0688 78.8242 25.0295 79.1815 24.8911 79.5051C24.7528 79.8287 24.5217 80.104 24.2269 80.2964C23.9322 80.4887 23.5871 80.5893 23.2352 80.5856C22.8833 80.5819 22.5404 80.4739 22.2498 80.2754C21.9592 80.0769 21.7339 79.7967 21.6025 79.4703C21.471 79.1438 21.4393 78.7857 21.5112 78.4413C21.5832 78.0968 21.7556 77.7813 22.0068 77.5348C22.2579 77.2882 22.5765 77.1217 22.9222 77.0561C23.1523 77.0126 23.3887 77.0149 23.6179 77.0629C23.8471 77.1109 24.0646 77.2036 24.258 77.3356C24.4513 77.4677 24.6167 77.6366 24.7448 77.8327C24.8728 78.0287 24.9609 78.2481 25.0041 78.4782Z" fill="#0E4B44"/>
<path d="M24.1947 112.775L24.9399 116.723L18.2806 117.98L17.5361 114.03L24.1947 112.775Z" fill="white"/>
<path d="M24.0273 107.194L24.4882 109.642C22.295 110.056 20.0265 109.629 18.1334 108.447C16.2403 107.265 14.861 105.414 14.2695 103.262L16.686 102.806L16.7255 102.794C17.1899 104.296 18.1908 105.574 19.5374 106.386C20.8841 107.197 22.4823 107.485 24.0273 107.194Z" fill="white"/>
<path d="M17.5486 79.8832C17.6138 80.2291 17.575 80.5866 17.4371 80.9105C17.2991 81.2344 17.0683 81.5101 16.7737 81.7028C16.4792 81.8956 16.1341 81.9966 15.7821 81.9933C15.4301 81.99 15.087 81.8824 14.7961 81.6841C14.5052 81.4858 14.2797 81.2057 14.1479 80.8793C14.0162 80.5528 13.9842 80.1947 14.0559 79.85C14.1277 79.5054 14.3 79.1898 14.5511 78.9431C14.8022 78.6963 15.1208 78.5296 15.4666 78.4639C15.6965 78.4203 15.9328 78.4224 16.1618 78.4702C16.3909 78.5179 16.6083 78.6103 16.8017 78.7421C16.995 78.8739 17.1605 79.0426 17.2886 79.2383C17.4168 79.4341 17.5051 79.6532 17.5486 79.8832Z" fill="#0E4B44"/>
<path d="M10.093 81.291C10.1577 81.6369 10.1183 81.9943 9.98 82.3178C9.84167 82.6414 9.61054 82.9168 9.31581 83.1091C9.02107 83.3014 8.67596 83.4021 8.32405 83.3983C7.97215 83.3946 7.62924 83.2867 7.33865 83.0882C7.04805 82.8897 6.82281 82.6095 6.69136 82.283C6.55991 81.9566 6.52816 81.5985 6.60011 81.254C6.67207 80.9095 6.8445 80.5941 7.09563 80.3475C7.34677 80.101 7.66533 79.9344 8.01109 79.8688C8.2412 79.8252 8.47766 79.8273 8.70693 79.8752C8.9362 79.9231 9.15376 80.0158 9.34716 80.1479C9.54056 80.28 9.70599 80.449 9.83398 80.6451C9.96197 80.8413 10.05 81.0608 10.093 81.291Z" fill="#0E4B44"/>
<path d="M47.3299 66.5143C48.2196 66.271 48.9826 65.6969 49.463 64.9096C49.9434 64.1222 50.1049 63.1811 49.9144 62.2787L49.839 61.914C48.4229 54.9833 49.1622 47.7853 51.9575 41.2871C53.3296 38.0198 53.76 34.4338 53.2001 30.9347C52.6402 27.4355 51.1123 24.1628 48.7893 21.4868C46.4663 18.8107 43.4408 16.8381 40.0551 15.7919C36.6693 14.7458 33.0584 14.668 29.6307 15.5672C26.203 16.4664 23.0953 18.3068 20.6591 20.8802C18.2229 23.4536 16.5554 26.6574 15.8452 30.1292C15.135 33.601 15.4105 37.2022 16.6404 40.5256C17.8703 43.849 20.0056 46.762 22.8048 48.935C28.4939 53.3297 32.7004 59.3614 34.8585 66.2186C35.089 66.9525 35.5472 67.5939 36.1668 68.0498C36.7864 68.5058 37.5352 68.7525 38.3044 68.7542C38.6014 68.7533 38.8971 68.7167 39.1853 68.6451" stroke="white" stroke-width="0.485304" stroke-linecap="round" stroke-linejoin="round"/>
<path d="M38.134 71.9223C37.9224 71.751 37.7517 71.5348 37.6341 71.2893C37.5165 71.0438 37.455 70.7752 37.4541 70.503C37.4547 70.1009 37.5883 69.7102 37.8341 69.3919C38.0799 69.0736 38.4241 68.8456 38.8131 68.7434L39.1871 68.6465L39.648 68.5252L46.7337 66.6708L47.3289 66.5158L47.8379 66.3822C48.0692 66.3213 48.3103 66.3065 48.5474 66.3387C48.7845 66.371 49.0129 66.4496 49.2195 66.5701C49.4262 66.6907 49.6071 66.8508 49.7519 67.0412C49.8967 67.2317 50.0025 67.4488 50.0634 67.6802C50.1018 67.8311 50.1213 67.9861 50.1215 68.1418C50.1217 68.5444 49.9884 68.9357 49.7425 69.2544C49.4966 69.5732 49.152 69.8015 48.7625 69.9036L39.7356 72.2655C39.4607 72.3383 39.1725 72.3451 38.8945 72.2852C38.6165 72.2253 38.3566 72.1004 38.1361 71.9209" stroke="white" stroke-width="0.485304" stroke-linecap="round" stroke-linejoin="round"/>
<path d="M39.5859 39.3739L46.7277 66.6428" stroke="white" stroke-width="0.485304" stroke-linecap="round" stroke-linejoin="round"/>
<path d="M36.1602 41.1644C37.4926 42.145 39.0655 42.1594 39.5846 39.3739" stroke="white" stroke-width="0.485304" stroke-linecap="round" stroke-linejoin="round"/>
<path d="M36.161 41.1644C37.0304 39.1988 36.8531 36.0199 35.0447 36.493C33.1156 36.9977 34.4337 39.893 36.161 41.1644Z" stroke="white" stroke-width="0.485304" stroke-linecap="round" stroke-linejoin="round"/>
<path d="M39.6415 68.4993L32.499 41.2304C34.1689 43.494 35.4841 42.6985 36.1603 41.1644" stroke="white" stroke-width="0.485304" stroke-linecap="round" stroke-linejoin="round"/>
<path d="M49.9552 70.0184C50.3023 70.1695 50.5938 70.425 50.7889 70.7493C50.9841 71.0737 51.0734 71.4508 51.0444 71.8282C51.0153 72.2057 50.8693 72.5647 50.6268 72.8553C50.3843 73.146 50.0572 73.3539 49.6911 73.45L40.6656 75.8134C40.4343 75.8738 40.1935 75.8881 39.9567 75.8555C39.72 75.8228 39.492 75.7438 39.2858 75.623C39.0796 75.5022 38.8992 75.342 38.7549 75.1514C38.6107 74.9609 38.5054 74.7438 38.4451 74.5125C38.4051 74.3621 38.3848 74.2072 38.3848 74.0516C38.3853 73.6495 38.519 73.2588 38.7648 72.9405C39.0106 72.6222 39.3548 72.3942 39.7438 72.292L48.7685 69.9287C49.1631 69.8257 49.5807 69.8572 49.9552 70.0184Z" stroke="white" stroke-width="0.485304" stroke-linecap="round" stroke-linejoin="round"/>
<path d="M47.4934 77.8177L44.448 78.6139C43.9856 78.7355 43.5038 78.7647 43.0301 78.6998C42.5564 78.635 42.1002 78.4774 41.6875 78.236C41.2748 77.9946 40.9137 77.6742 40.625 77.2931C40.3363 76.912 40.1256 76.4777 40.0049 76.0151L50.0929 73.3746C50.1713 73.6766 50.2111 73.9873 50.2113 74.2993C50.2104 75.1036 49.9432 75.8849 49.4515 76.5214C48.9599 77.1579 48.2713 77.6137 47.4934 77.8177Z" stroke="white" stroke-width="0.485304" stroke-linecap="round" stroke-linejoin="round"/>
<path d="M129.488 69.424C134.034 72.0778 137.372 76.3933 138.798 81.4606C140.224 86.5279 139.626 91.9508 137.131 96.5859C134.636 101.221 130.438 104.706 125.423 106.306C120.408 107.906 114.968 107.496 110.249 105.162C105.531 102.829 101.903 98.7539 100.131 93.7971C98.3585 88.8403 98.5804 83.389 100.75 78.5928C102.919 73.7965 106.866 70.03 111.759 68.0877C116.651 66.1454 122.107 66.1789 126.975 68.1813C127.841 68.5356 128.681 68.9501 129.488 69.4219" stroke="white" stroke-width="0.485304" stroke-linecap="round" stroke-linejoin="round"/>
<path d="M49.8496 69.7126L49.8956 69.7033L63.922 67.0578" stroke="white" stroke-width="0.485304" stroke-linecap="round" stroke-linejoin="round"/>
<path d="M86.1655 81.3685L94.0301 123.07L14.5113 138.072L3.27539 78.4976L38.1333 71.9209H38.1354" stroke="white" stroke-width="0.485304" stroke-linecap="round" stroke-linejoin="round"/>
<path d="M13.2744 85.8044L60.5686 76.8816" stroke="white" stroke-width="0.485304" stroke-linecap="round" stroke-linejoin="round"/>
<path d="M10.093 81.291C10.1577 81.6369 10.1183 81.9943 9.98 82.3178C9.84167 82.6414 9.61054 82.9168 9.31581 83.1091C9.02107 83.3014 8.67596 83.4021 8.32405 83.3983C7.97215 83.3946 7.62924 83.2867 7.33865 83.0882C7.04805 82.8897 6.82281 82.6095 6.69136 82.283C6.55991 81.9566 6.52816 81.5985 6.60011 81.254C6.67207 80.9095 6.8445 80.5941 7.09563 80.3475C7.34677 80.101 7.66533 79.9344 8.01109 79.8688C8.2412 79.8252 8.47766 79.8273 8.70693 79.8752C8.9362 79.9231 9.15376 80.0158 9.34716 80.1479C9.54056 80.28 9.70599 80.449 9.83398 80.6451C9.96197 80.8413 10.05 81.0608 10.093 81.291Z" stroke="white" stroke-width="0.485304" stroke-linecap="round" stroke-linejoin="round"/>
<path d="M17.5486 79.8832C17.6138 80.2291 17.575 80.5866 17.4371 80.9105C17.2991 81.2344 17.0683 81.5101 16.7737 81.7028C16.4792 81.8956 16.1341 81.9966 15.7821 81.9933C15.4301 81.99 15.087 81.8824 14.7961 81.6841C14.5052 81.4858 14.2797 81.2057 14.1479 80.8793C14.0162 80.5528 13.9842 80.1947 14.0559 79.85C14.1277 79.5054 14.3 79.1898 14.5511 78.9431C14.8022 78.6963 15.1208 78.5296 15.4666 78.4639C15.6965 78.4203 15.9328 78.4224 16.1618 78.4702C16.3909 78.5179 16.6083 78.6103 16.8017 78.7421C16.995 78.8739 17.1605 79.0426 17.2886 79.2383C17.4168 79.4341 17.5051 79.6532 17.5486 79.8832Z" stroke="white" stroke-width="0.485304" stroke-linecap="round" stroke-linejoin="round"/>
<path d="M25.0041 78.4782C25.0688 78.8242 25.0295 79.1815 24.8911 79.5051C24.7528 79.8287 24.5217 80.104 24.2269 80.2964C23.9322 80.4887 23.5871 80.5893 23.2352 80.5856C22.8833 80.5819 22.5404 80.4739 22.2498 80.2754C21.9592 80.0769 21.7339 79.7967 21.6025 79.4703C21.471 79.1438 21.4393 78.7857 21.5112 78.4413C21.5832 78.0968 21.7556 77.7813 22.0068 77.5348C22.2579 77.2882 22.5765 77.1217 22.9222 77.0561C23.1523 77.0126 23.3887 77.0149 23.6179 77.0629C23.8471 77.1109 24.0646 77.2036 24.258 77.3356C24.4513 77.4677 24.6167 77.6366 24.7448 77.8327C24.8728 78.0287 24.9609 78.2481 25.0041 78.4782Z" stroke="white" stroke-width="0.485304" stroke-linecap="round" stroke-linejoin="round"/>
<path d="M98.9378 83.8094L86.1663 81.3685L62.0684 76.7624L63.9227 67.0578L64.1632 65.8108L71.5741 27.031L135.264 39.2059L129.488 69.4218V69.424" stroke="white" stroke-width="0.485304" stroke-linecap="round" stroke-linejoin="round"/>
<path d="M77.3271 35.2043L128 44.8896" stroke="white" stroke-width="0.485304" stroke-linecap="round" stroke-linejoin="round"/>
<path d="M76.0175 31.2889C75.9623 31.5777 75.8227 31.8437 75.6163 32.0531C75.41 32.2626 75.1462 32.4062 74.8582 32.4658C74.5703 32.5253 74.2711 32.4982 73.9986 32.3877C73.7261 32.2773 73.4925 32.0885 73.3272 31.8453C73.162 31.6021 73.0726 31.3153 73.0704 31.0213C73.0681 30.7272 73.1531 30.4391 73.3145 30.1934C73.476 29.9476 73.7067 29.7553 73.9775 29.6407C74.2483 29.526 74.5469 29.4943 74.8358 29.5494C75.0276 29.586 75.2103 29.66 75.3735 29.7673C75.5367 29.8745 75.6772 30.0128 75.7869 30.1744C75.8967 30.3359 75.9735 30.5175 76.0131 30.7087C76.0526 30.8999 76.0541 31.0971 76.0175 31.2889Z" stroke="white" stroke-width="0.485304" stroke-linecap="round" stroke-linejoin="round"/>
<path d="M82.2406 32.477C82.1854 32.766 82.0458 33.0321 81.8393 33.2417C81.6329 33.4513 81.369 33.595 81.0809 33.6546C80.7928 33.7142 80.4935 33.6871 80.2209 33.5766C79.9482 33.4661 79.7145 33.2773 79.5491 33.0339C79.3838 32.7906 79.2943 32.5037 79.292 32.2095C79.2897 31.9154 79.3747 31.6271 79.5363 31.3812C79.6978 31.1354 79.9286 30.9429 80.1995 30.8282C80.4704 30.7135 80.7692 30.6817 81.0582 30.7368C81.2502 30.7731 81.4332 30.847 81.5966 30.9542C81.7601 31.0614 81.9008 31.1998 82.0106 31.3615C82.1204 31.5231 82.1973 31.7049 82.2368 31.8963C82.2762 32.0877 82.2775 32.2851 82.2406 32.477Z" stroke="white" stroke-width="0.485304" stroke-linecap="round" stroke-linejoin="round"/>
<path d="M88.4646 33.6687C88.4089 33.9575 88.2688 34.2232 88.0621 34.4324C87.8554 34.6415 87.5914 34.7847 87.3033 34.8439C87.0153 34.903 86.7161 34.8755 86.4437 34.7647C86.1713 34.6539 85.9379 34.4649 85.7729 34.2215C85.6078 33.9781 85.5187 33.6912 85.5166 33.3972C85.5146 33.1031 85.5997 32.815 85.7613 32.5694C85.9229 32.3237 86.1537 32.1314 86.4246 32.0168C86.6954 31.9023 86.9941 31.8705 87.283 31.9257C87.6706 32.0004 88.0128 32.226 88.2344 32.5528C88.4559 32.8796 88.5387 33.2809 88.4646 33.6687Z" stroke="white" stroke-width="0.485304" stroke-linecap="round" stroke-linejoin="round"/>
<path d="M126.659 63.3835C127.203 64.1919 127.329 65.6162 126.979 68.1813" stroke="white" stroke-width="0.485304" stroke-linecap="round" stroke-linejoin="round"/>
<path d="M121.608 66.6429C122.315 64.6772 123.016 63.039 124.086 62.5587" stroke="white" stroke-width="0.485304" stroke-linecap="round" stroke-linejoin="round"/>
<path d="M108.943 55.0429C110.543 57.3215 108.728 64.1359 109.024 69.3292" stroke="white" stroke-width="0.485304" stroke-linecap="round" stroke-linejoin="round"/>
<path d="M96.2131 45.0913C99.7395 49.4519 92.6954 68.7563 97.4486 69.5259C102.169 70.2876 102.761 56.7321 106.387 54.5576" stroke="white" stroke-width="0.485304" stroke-linecap="round" stroke-linejoin="round"/>
<path d="M77.8092 46.0375C81.4346 50.4713 73.2398 72.8211 80.6414 74.0617C88.1794 75.3259 88.4665 47.0806 93.6972 44.4359" stroke="white" stroke-width="0.485304" stroke-linecap="round" stroke-linejoin="round"/>
<path d="M64.1631 65.8108C67.1553 66.2085 69.9946 47.7533 75.1291 45.5012" stroke="white" stroke-width="0.485304" stroke-linecap="round" stroke-linejoin="round"/>
<path d="M28.6115 94.1451C29.6693 95.0478 30.5006 96.1862 31.0385 97.4687C31.5763 98.7512 31.8058 100.142 31.7084 101.529C31.611 102.917 31.1895 104.262 30.4777 105.456C29.7659 106.651 28.7837 107.662 27.6101 108.408C26.4365 109.154 25.1042 109.615 23.7203 109.752C22.3364 109.89 20.9396 109.701 19.6421 109.2C18.3445 108.7 17.1826 107.902 16.2495 106.87C15.3165 105.839 14.6384 104.603 14.2699 103.262C14.2038 103.029 14.1507 102.794 14.1048 102.554C13.7631 100.746 13.991 98.8764 14.757 97.2034C15.5229 95.5304 16.7892 94.1364 18.3811 93.2137C19.973 92.2909 21.8121 91.885 23.6445 92.0518C25.4769 92.2186 27.2124 92.95 28.6115 94.1451Z" stroke="white" stroke-width="0.485304" stroke-linecap="round" stroke-linejoin="round"/>
<path d="M26.9373 95.9872C28.0553 96.9182 28.8228 98.2021 29.1135 99.6276C29.4042 101.053 29.2006 102.535 28.5364 103.829C27.8721 105.124 26.7868 106.153 25.4592 106.748C24.1316 107.343 22.641 107.468 21.2328 107.103C19.8246 106.737 18.5829 105.903 17.7123 104.738C16.8417 103.572 16.394 102.145 16.4431 100.691C16.4922 99.2367 17.035 97.8428 17.9823 96.7386C18.9295 95.6344 20.2246 94.8857 21.6542 94.616C22.5814 94.4384 23.5365 94.4694 24.4502 94.7065C25.364 94.9437 26.2135 95.3811 26.9373 95.9872Z" stroke="white" stroke-width="0.485304" stroke-linecap="round" stroke-linejoin="round"/>
<path d="M24.0273 107.194L24.4882 109.642" stroke="white" stroke-width="0.485304" stroke-linecap="round" stroke-linejoin="round"/>
<path d="M26.9385 95.9872L28.6126 94.1451" stroke="white" stroke-width="0.485304" stroke-linecap="round" stroke-linejoin="round"/>
<path d="M16.6852 102.806L14.2687 103.262L14.2393 103.267" stroke="white" stroke-width="0.485304" stroke-linecap="round" stroke-linejoin="round"/>
<path d="M80.6553 118.407L87.9815 117.025L81.3057 81.6327" stroke="white" stroke-width="0.485304" stroke-linecap="round" stroke-linejoin="round"/>
<path d="M70.7148 120.281L77.1415 119.07" stroke="white" stroke-width="0.485304" stroke-linecap="round" stroke-linejoin="round"/>
<path d="M67.2041 120.944L70.7154 120.283" stroke="white" stroke-width="0.485304" stroke-linecap="round" stroke-linejoin="round"/>
<path d="M60.7754 122.157L67.2035 120.946" stroke="white" stroke-width="0.485304" stroke-linecap="round" stroke-linejoin="round"/>
<path d="M50.835 124.033L57.2631 122.82" stroke="white" stroke-width="0.485304" stroke-linecap="round" stroke-linejoin="round"/>
<path d="M40.6748 125.95L47.324 124.696" stroke="white" stroke-width="0.485304" stroke-linecap="round" stroke-linejoin="round"/>
<path d="M24.9399 116.723L18.2806 117.98L17.5361 114.03L24.1947 112.775L24.9399 116.723Z" stroke="white" stroke-width="0.485304" stroke-linecap="round" stroke-linejoin="round"/>
<path d="M26.0512 122.611L19.3919 123.868L18.6475 119.917L25.306 118.662L26.0512 122.611Z" stroke="white" stroke-width="0.485304" stroke-linecap="round" stroke-linejoin="round"/>
<path d="M27.1604 128.498L20.504 129.755L19.7588 125.804L26.4152 124.55L27.1604 128.498Z" stroke="white" stroke-width="0.485304" stroke-linecap="round" stroke-linejoin="round"/>
<path d="M50.8357 124.033L47.3244 124.696L46.5792 120.745L40.5 88.5275L44.0141 87.8648L50.0905 120.082L50.8357 124.033Z" stroke="white" stroke-width="0.485304" stroke-linecap="round" stroke-linejoin="round"/>
<path d="M60.7761 122.157L57.2641 122.82L53.9251 105.124L50.4404 86.6516L53.9546 85.989L57.4393 104.461L60.7761 122.157Z" stroke="white" stroke-width="0.485304" stroke-linecap="round" stroke-linejoin="round"/>
<path d="M70.7158 120.283L67.2045 120.946V120.944L65.348 111.108L60.3809 84.7778L63.8921 84.1152L68.86 110.446L70.7158 120.281V120.283Z" stroke="white" stroke-width="0.485304" stroke-linecap="round" stroke-linejoin="round"/>
<path d="M80.656 118.407L77.1426 119.07L72.721 95.6204L70.3203 82.902L73.8323 82.2393L76.2323 94.9577L80.656 118.407Z" stroke="white" stroke-width="0.485304" stroke-linecap="round" stroke-linejoin="round"/>
<path d="M46.5791 120.745L50.0904 120.082" stroke="white" stroke-width="0.485304" stroke-linecap="round" stroke-linejoin="round"/>
<path d="M53.9238 105.124L57.4351 104.461" stroke="white" stroke-width="0.485304" stroke-linecap="round" stroke-linejoin="round"/>
<path d="M65.3477 111.108L68.8596 110.446" stroke="white" stroke-width="0.485304" stroke-linecap="round" stroke-linejoin="round"/>
<path d="M72.7197 95.6204L76.231 94.9577" stroke="white" stroke-width="0.485304" stroke-linecap="round" stroke-linejoin="round"/>
<path d="M133.672 72.6488L119.171 87.1491L104.672 101.649" stroke="white" stroke-width="0.485304" stroke-linecap="round" stroke-linejoin="round"/>
<path d="M104.672 72.6488L119.171 87.1491" stroke="white" stroke-width="0.485304" stroke-linecap="round" stroke-linejoin="round"/>
<path d="M28.446 12.4008L26.6914 5.89658" stroke="white" stroke-width="0.485304" stroke-linecap="round" stroke-linejoin="round"/>
<path d="M36.0488 12.4008L36.7574 6.56924" stroke="white" stroke-width="0.485304" stroke-linecap="round" stroke-linejoin="round"/>
<path d="M21.7341 16.8755L17.8711 12.4008" stroke="white" stroke-width="0.485304" stroke-linecap="round" stroke-linejoin="round"/>
</svg>
